<?xml version="1.0" standalone="no"?>
<!DOCTYPE svg PUBLIC "-//W3C//DTD SVG 20010904//EN"
 "http://www.w3.org/TR/2001/REC-SVG-20010904/DTD/svg10.dtd">
<svg version="1.0" xmlns="http://www.w3.org/2000/svg"
 width="659.000000pt" height="369.000000pt" viewBox="0 0 659.000000 369.000000"
 preserveAspectRatio="xMidYMid meet">

<g transform="translate(0.000000,369.000000) scale(0.100000,-0.100000)"
fill="#000000" stroke="none">
<path d="M0 1845 l0 -1845 3295 0 3295 0 0 1845 0 1845 -3295 0 -3295 0 0
-1845z m1281 846 l24 -19 2 -824 c2 -648 0 -828 -10 -848 -26 -52 -105 -52
-132 0 -13 25 -15 134 -15 835 0 594 3 812 12 828 26 49 78 61 119 28z m486
-15 l28 -24 0 -822 0 -822 -28 -24 c-36 -31 -71 -31 -102 1 l-25 24 0 819 c0
864 -1 835 45 860 31 17 51 14 82 -12z m-730 -258 l23 -21 0 -582 c0 -631 1
-615 -55 -629 -29 -7 -79 15 -89 39 -3 9 -6 276 -6 593 l0 576 22 23 c28 30
74 30 105 1z m1888 -6 c47 -24 86 -63 111 -112 23 -46 32 -239 14 -317 l-12
-55 36 -37 c19 -20 45 -58 58 -86 21 -45 23 -64 23 -205 0 -141 -2 -160 -23
-206 -27 -60 -69 -103 -132 -136 -41 -21 -58 -23 -180 -23 -116 0 -141 3 -180
21 -58 27 -106 76 -136 139 -22 46 -24 62 -23 205 1 167 6 193 55 262 44 62
118 100 208 105 102 6 113 9 123 40 5 16 8 73 6 128 -4 115 -12 130 -74 130
-57 0 -69 -21 -69 -112 l0 -73 -90 0 -90 0 0 88 c0 75 4 96 26 140 45 92 127
135 244 128 40 -2 80 -11 105 -24z m940 -1 c63 -28 100 -63 133 -126 l27 -50
3 -492 3 -493 -91 0 -90 0 0 475 0 475 -28 31 c-30 33 -38 35 -175 31 -47 -2
-63 -7 -82 -27 l-25 -24 0 -481 0 -480 -95 0 -95 0 0 460 c0 286 4 478 11 509
21 101 95 179 197 208 74 20 245 12 307 -16z m781 -22 c55 -26 110 -87 123
-136 14 -48 14 -247 1 -292 -9 -32 -7 -37 34 -81 30 -32 50 -65 60 -101 21
-70 22 -266 1 -335 -19 -66 -73 -127 -139 -159 -52 -25 -60 -26 -193 -23 -155
3 -184 12 -248 76 -66 65 -75 96 -75 273 0 152 1 158 28 210 49 95 149 149
273 149 79 0 89 15 89 135 0 113 -12 135 -74 135 -23 0 -47 -5 -54 -12 -7 -7
-12 -43 -12 -90 l0 -79 -92 3 -93 3 -3 45 c-10 132 33 223 127 272 69 36 181
40 247 7z m919 4 c68 -23 135 -92 158 -162 15 -47 17 -105 17 -507 l0 -454
-95 0 -95 0 0 460 0 461 -25 24 c-22 23 -31 25 -123 25 -93 0 -100 -1 -123
-26 l-24 -26 -3 -459 -3 -459 -89 0 -90 0 0 468 0 467 24 50 c29 60 76 107
136 134 60 27 260 30 335 4z m-3549 -97 c18 -14 19 -33 24 -440 3 -234 2 -439
-2 -455 -10 -37 -29 -52 -69 -53 -23 -1 -39 6 -55 26 l-23 26 -1 430 0 431 24
24 c28 28 72 33 102 11z m-513 -47 c14 -6 30 -22 36 -36 7 -16 11 -144 11
-394 l0 -370 -25 -24 c-29 -30 -74 -32 -106 -6 l-24 19 0 387 0 387 28 24 c31
27 45 29 80 13z m-713 -139 c19 -19 20 -33 20 -285 l0 -266 -25 -24 c-30 -30
-64 -32 -99 -4 l-26 20 0 270 c0 256 1 270 20 289 12 12 33 20 55 20 22 0 43
-8 55 -20z m1465 -35 l25 -24 0 -224 c0 -204 -2 -227 -19 -248 -27 -33 -76
-34 -101 -2 -19 24 -20 41 -20 254 0 216 1 230 20 249 27 27 66 25 95 -5z"/>
<path d="M2708 1784 c-39 -21 -50 -70 -46 -207 3 -110 4 -118 29 -143 27 -26
56 -30 212 -25 10 1 29 12 42 26 24 23 25 29 25 165 l0 142 -29 29 c-28 28
-33 29 -118 29 -58 -1 -97 -6 -115 -16z"/>
<path d="M4440 1787 c-40 -20 -50 -53 -50 -168 0 -114 11 -164 40 -179 10 -6
64 -10 119 -10 96 0 100 1 120 26 19 24 21 40 21 158 -1 141 -6 157 -54 176
-38 14 -166 12 -196 -3z"/>
</g>
</svg>
